<?xml version="1.0" encoding="UTF-8" standalone="no"?>
<!DOCTYPE svg PUBLIC "-//W3C//DTD SVG 1.1//EN" "http://www.w3.org/Graphics/SVG/1.1/DTD/svg11.dtd">
<svg width="100%" height="100%" viewBox="0 0 915 215" version="1.1" xmlns="http://www.w3.org/2000/svg" xmlns:xlink="http://www.w3.org/1999/xlink" xml:space="preserve" style="fill-rule:evenodd;clip-rule:evenodd;stroke-linejoin:round;stroke-miterlimit:1.41421;">
    <g transform="matrix(1,0,0,1,-535.274,-434.524)">
        <g id="Layer-1">
            <path d="M694.872,593.954C694.872,593.954 671.296,566.435 663.437,557.249C662.546,556.2 662.222,554.774 662.546,553.474C662.789,552.76 663.316,551.963 663.802,551.418L667.448,547.39L707.672,593.954L694.872,593.954ZM670,593.954L640.794,559.892L639.335,558.046C637.958,556.451 637.998,553.976 639.416,552.424L693.859,488.999L707.348,488.999L652.581,551.586C651.164,553.138 651.123,555.612 652.501,557.207L684.097,593.954L670,593.954ZM635.973,543.909C624.712,556.955 593.035,593.954 593.035,593.954L578.979,593.954L622.079,544.035C623.456,542.441 623.456,540.05 622.079,538.498L579.303,488.999L592.832,488.999L635.851,538.917C636.946,540.385 637.148,542.525 635.973,543.909M635.447,572.224L631.275,577.09L616.813,593.953L603.73,593.953L631.396,561.738C631.396,561.738 634.475,565.387 635.528,566.604C636.905,568.24 636.865,570.672 635.447,572.224M616.611,488.999C616.611,488.999 639.781,516.727 648.166,525.326C649.502,526.669 649.259,528.43 648.045,529.857C643.589,535.1 643.467,535.184 643.467,535.184L603.607,488.999L616.611,488.999ZM651.366,510.729L655.538,505.862L670,489L683.084,489L655.417,521.215C655.417,521.215 652.339,517.566 651.285,516.35C649.908,514.713 649.948,512.28 651.366,510.729M642.574,434.524C583.314,434.524 535.274,482.563 535.274,541.824C535.274,601.084 583.314,649.124 642.574,649.124C701.835,649.124 749.875,601.084 749.875,541.824C749.875,482.563 701.835,434.524 642.574,434.524" style="fill-rule:nonzero;"/>
            <rect x="807.368" y="497.522" width="16.527" height="85.868" style="fill-rule:nonzero;"/>
            <path d="M910.485,520.875C902.282,520.875 894.737,524.288 890.247,531.414C886.893,524.467 880.186,520.875 871.504,520.875C864.139,520.875 857.312,524.109 853.181,530.755L853.181,522.072L837.252,522.072L837.252,583.389L853.181,583.389L853.181,549.318C853.181,540.755 858.989,534.348 866.354,534.348L867.313,534.348C873.839,534.348 876.893,538.48 876.893,546.623L876.893,583.389L892.821,583.389L892.821,549.318C892.821,540.755 898.569,534.348 905.935,534.348L906.893,534.348C913.42,534.348 916.354,538.48 916.354,546.623L916.354,583.389L932.282,583.389L932.282,544.767C932.282,537.522 930.546,531.713 927.072,527.342C923.539,523.031 918.03,520.875 910.485,520.875" style="fill-rule:nonzero;"/>
            <path d="M1016.42,520.875C1008.21,520.875 1000.67,524.288 996.178,531.414C992.824,524.467 986.117,520.875 977.435,520.875C970.07,520.875 963.243,524.109 959.112,530.755L959.112,522.072L943.183,522.072L943.183,583.389L959.112,583.389L959.112,549.318C959.112,540.755 964.92,534.348 972.285,534.348L973.244,534.348C979.77,534.348 982.824,538.48 982.824,546.623L982.824,583.389L998.752,583.389L998.752,549.318C998.752,540.755 1004.5,534.348 1011.87,534.348L1012.82,534.348C1019.35,534.348 1022.28,538.48 1022.28,546.623L1022.28,583.389L1038.21,583.389L1038.21,544.767C1038.21,537.522 1036.48,531.713 1033,527.342C1029.47,523.031 1023.96,520.875 1016.42,520.875" style="fill-rule:nonzero;"/>
            <path d="M1137.08,563.15L1137.08,534.947L1150.79,534.947L1150.79,522.073L1137.08,522.073L1137.08,502.192L1121.15,502.192L1121.15,522.073L1103.07,522.073L1087.63,522.073L1087.14,522.073L1087.14,556.144C1087.14,564.707 1081.45,571.713 1074.5,571.713L1073.55,571.713C1067.74,571.713 1064.44,567.402 1064.44,559.498L1064.44,522.073L1048.52,522.073L1048.52,561.294C1048.52,568.419 1050.25,574.049 1053.72,578.24C1057.14,582.492 1062.35,584.587 1069.23,584.587C1076.84,584.587 1083.37,580.695 1087.14,574.408L1087.14,583.39L1103.07,583.39L1103.07,534.947L1121.15,534.947L1121.15,567.462C1121.15,577.821 1126.72,583.39 1137.08,583.39L1152.65,583.39L1152.65,569.917L1143.85,569.917C1138.22,569.917 1137.08,568.779 1137.08,563.15" style="fill-rule:nonzero;"/>
            <path d="M1194.03,558.36C1194.03,566.084 1187.62,571.714 1180.38,571.714L1179.42,571.714C1175.05,571.714 1171.82,569.258 1171.82,565.486C1171.82,563.15 1172.71,561.414 1174.51,560.157C1176.31,558.899 1178.4,558.18 1180.74,558.001L1194.03,556.623L1194.03,558.36ZM1209.48,542.911C1209.48,528.78 1199.18,520.876 1183.73,520.876C1168.64,520.876 1158.64,529.438 1157.33,541.055L1173.31,541.055C1173.67,537.342 1177.44,533.75 1183.19,533.75L1184.21,533.75C1190.08,533.75 1194.03,538.001 1194.03,543.51L1194.03,545.007L1178.58,546.385C1172,546.923 1166.61,548.84 1162.41,552.193C1158.22,555.546 1156.13,560.336 1156.13,566.564C1155.95,577.342 1165.23,584.707 1176.25,584.587C1184.09,584.587 1190.56,581.235 1194.39,575.905C1194.51,579.138 1194.75,581.654 1195.11,583.39L1210.08,583.39C1209.66,580.516 1209.48,576.025 1209.48,569.917L1209.48,542.911Z" style="fill-rule:nonzero;"/>
            <path d="M1251.4,571.713L1250.44,571.713C1243.14,571.893 1236.31,563.989 1236.43,552.731C1236.31,541.474 1243.14,533.569 1250.44,533.749L1251.4,533.749C1259.42,533.749 1265.41,541.114 1265.41,552.611C1265.41,564.108 1259.36,571.713 1251.4,571.713M1254.1,520.875C1245.89,520.875 1239.07,525.545 1236.43,530.036L1236.43,497.522L1220.5,497.522L1220.5,583.389L1236.43,583.389L1236.43,575.425C1239.07,579.917 1245.89,584.587 1254.1,584.587C1271.28,584.886 1281.52,569.497 1281.34,552.731C1281.52,535.964 1271.28,520.575 1254.1,520.875" style="fill-rule:nonzero;"/>
            <rect x="1289.31" y="497.523" width="15.929" height="85.867" style="fill-rule:nonzero;"/>
            <path d="M1328.83,545.486C1329.19,538.24 1334.76,533.75 1341.47,533.75L1342.42,533.75C1349.13,533.75 1354.7,538.24 1355.06,545.486L1328.83,545.486ZM1342.55,520.875C1324.58,520.636 1313.2,534.408 1313.38,552.732C1313.08,572.312 1327.16,584.827 1342.55,584.588C1357.57,584.588 1367.28,576.204 1370.27,563.989L1354.46,563.989C1353.32,568.48 1349.43,571.714 1343.68,571.714L1342.66,571.714C1336.02,571.714 1329.43,565.965 1328.83,557.762L1370.27,557.762C1370.45,555.127 1370.51,553.21 1370.51,552.013C1370.69,534.109 1360.45,520.696 1342.55,520.875" style="fill-rule:nonzero;"/>
            <path d="M1431.06,583.697L1411.46,554.18L1391.5,583.697L1373.25,583.697L1402.36,540.565L1375.07,499.546L1394.14,499.546L1411.98,526.364L1430.12,499.546L1448.37,499.546L1421.08,539.978L1450.19,583.697L1431.06,583.697Z" style="fill-rule:nonzero;"/>
        </g>
    </g>
</svg>
